<svg xmlns="http://www.w3.org/2000/svg" viewBox="0 0 40 58">
  <!-- Body -->
  <path d="M18 24 L22 24 C28 24 33 27 33 31 C33 35 28 36 28 39 C28 42 33 44 33 48 C33 53 27 56 20 56 C13 56 7 53 7 48 C7 44 12 42 12 39 C12 36 7 35 7 31 C7 27 12 24 18 24Z" fill="#C17F3A" stroke="#8B4513" stroke-width="0.8" stroke-linejoin="round"/>
  <!-- Neck -->
  <path d="M17 8 L23 8 L22 24 L18 24Z" fill="#A0522D"/>
  <!-- Fingerboard -->
  <path d="M18.5 8 L21.5 8 L20.8 24 L19.2 24Z" fill="#1C0A00"/>
  <!-- Scroll -->
  <circle cx="20" cy="5" r="3.5" fill="none" stroke="#8B4513" stroke-width="1.8"/>
  <circle cx="20" cy="5" r="1.2" fill="#8B4513"/>
  <!-- F-holes -->
  <path d="M14.5 33 C13.5 35.5 14.5 37 14 39.5" fill="none" stroke="#5C2E00" stroke-width="1.4" stroke-linecap="round"/>
  <path d="M25.5 33 C26.5 35.5 25.5 37 26 39.5" fill="none" stroke="#5C2E00" stroke-width="1.4" stroke-linecap="round"/>
  <!-- Strings -->
  <line x1="19.2" y1="8" x2="19" y2="53" stroke="#D4C8A8" stroke-width="0.45"/>
  <line x1="20.8" y1="8" x2="21" y2="53" stroke="#D4C8A8" stroke-width="0.45"/>
  <!-- Bridge -->
  <path d="M17.5 40.5 Q20 39 22.5 40.5" fill="none" stroke="#C8A830" stroke-width="1.2" stroke-linecap="round"/>
  <!-- Tailpiece -->
  <path d="M18 52 L20 56 L22 52Z" fill="#5C2E00"/>
</svg>
