<svg xmlns="http://www.w3.org/2000/svg" viewBox="0 0 100 140">
  <!-- Background -->
  <rect width="100" height="140" fill="#ffffff"/>

  <!-- Body shadow -->
  <path d="M39 51L61 51C71 51 80 57 80 67C80 75 69 79 69 87C69 95 82 99 82 110C82 122 69 130 50 130C31 130 18 122 18 110C18 99 31 95 31 87C31 79 20 75 20 67C20 57 29 51 39 51Z"
        fill="#8B3A0A" opacity="0.35" transform="translate(2,2)"/>

  <!-- Body main -->
  <path d="M39 51L61 51C71 51 80 57 80 67C80 75 69 79 69 87C69 95 82 99 82 110C82 122 69 130 50 130C31 130 18 122 18 110C18 99 31 95 31 87C31 79 20 75 20 67C20 57 29 51 39 51Z"
        fill="#C97C2A"/>

  <!-- Body left sheen -->
  <path d="M39 51C29 51 20 57 20 67C20 75 31 79 31 87C31 92 24 97 20 104C22 93 30 90 30 87C30 79 19 74 19 66C19 56 28 50 39 50Z"
        fill="#E8A040" opacity="0.55"/>

  <!-- Purfling -->
  <path d="M39 51L61 51C71 51 80 57 80 67C80 75 69 79 69 87C69 95 82 99 82 110C82 122 69 130 50 130C31 130 18 122 18 110C18 99 31 95 31 87C31 79 20 75 20 67C20 57 29 51 39 51Z"
        fill="none" stroke="#7A3210" stroke-width="1.8"/>

  <!-- Neck shadow -->
  <path d="M44 15L56 15L62 51L38 51Z" fill="#7A3210"/>
  <!-- Neck -->
  <path d="M43 15L57 15L61 51L39 51Z" fill="#A05020"/>
  <!-- Fingerboard -->
  <path d="M45.5 15L54.5 15L58.5 51L41.5 51Z" fill="#130800"/>

  <!-- Nut -->
  <rect x="39" y="49" width="22" height="2.5" rx="1" fill="#EDD89A"/>

  <!-- Peg box -->
  <rect x="44" y="8" width="12" height="8" rx="2" fill="#A05020" stroke="#7A3210" stroke-width="0.8"/>

  <!-- Scroll (volute) -->
  <circle cx="50" cy="5.5" r="4" fill="none" stroke="#A05020" stroke-width="2.2"/>
  <circle cx="50" cy="5.5" r="1.6" fill="#A05020"/>

  <!-- Pegs -->
  <rect x="41.5" y="9.5" width="4" height="1.6" rx="0.8" fill="#C8A050" transform="rotate(-18,43,10.3)"/>
  <rect x="41.5" y="13.5" width="4" height="1.6" rx="0.8" fill="#C8A050" transform="rotate(-18,43,14.3)"/>
  <rect x="54.5" y="9.5" width="4" height="1.6" rx="0.8" fill="#C8A050" transform="rotate(18,57,10.3)"/>
  <rect x="54.5" y="13.5" width="4" height="1.6" rx="0.8" fill="#C8A050" transform="rotate(18,57,14.3)"/>

  <!-- Left f-hole -->
  <circle cx="33" cy="74.5" r="2.2" fill="#5C2000"/>
  <path d="M33 76.7C32 79.5 33.5 82 33 85" fill="none" stroke="#5C2000" stroke-width="2" stroke-linecap="round"/>
  <line x1="30.5" y1="80.5" x2="35.5" y2="80.5" stroke="#5C2000" stroke-width="1.2"/>
  <circle cx="33.5" cy="87" r="2.8" fill="#5C2000"/>

  <!-- Right f-hole -->
  <circle cx="67" cy="74.5" r="2.2" fill="#5C2000"/>
  <path d="M67 76.7C68 79.5 66.5 82 67 85" fill="none" stroke="#5C2000" stroke-width="2" stroke-linecap="round"/>
  <line x1="64.5" y1="80.5" x2="69.5" y2="80.5" stroke="#5C2000" stroke-width="1.2"/>
  <circle cx="66.5" cy="87" r="2.8" fill="#5C2000"/>

  <!-- Strings (4) -->
  <line x1="46.5" y1="15" x2="46" y2="124" stroke="#DDD0A0" stroke-width="0.55"/>
  <line x1="48.5" y1="15" x2="48" y2="124" stroke="#DDD0A0" stroke-width="0.65"/>
  <line x1="51.5" y1="15" x2="52" y2="124" stroke="#DDD0A0" stroke-width="0.65"/>
  <line x1="53.5" y1="15" x2="54" y2="124" stroke="#DDD0A0" stroke-width="0.55"/>

  <!-- Bridge -->
  <path d="M44 89.5Q50 87.5 56 89.5" fill="none" stroke="#C8A050" stroke-width="2.2" stroke-linecap="round"/>

  <!-- Tailpiece -->
  <path d="M46 119L50 128L54 119L52.5 115L47.5 115Z" fill="#5C2000" stroke="#3A1200" stroke-width="0.6"/>

  <!-- End pin -->
  <circle cx="50" cy="130" r="1.8" fill="#5C2000"/>
</svg>
